<svg width="668" height="668" viewBox="0 0 668 668" fill="none" xmlns="http://www.w3.org/2000/svg">
<path opacity="0.1" fill-rule="evenodd" clip-rule="evenodd" d="M334 634C499.687 634 634 499.687 634 334C634 168.315 499.687 34 334 34C168.315 34 34 168.315 34 334C34 499.687 168.315 634 334 634ZM459.363 294.823C459.187 292.463 458.013 290.193 455.95 288.693L339.697 204.232C339.567 204.137 339.437 204.047 339.303 203.962C336.443 201.599 332.243 201.369 329.103 203.651L213.801 287.423L213.729 287.443C209.352 288.867 206.956 293.57 208.378 297.947L253.117 435.637C254.008 438.38 256.187 440.343 258.766 441.077C260.043 441.873 261.551 442.333 263.167 442.333H405.667C405.827 442.333 405.987 442.33 406.143 442.32C409.847 442.55 413.38 440.267 414.58 436.577L459.177 299.317C459.667 297.81 459.703 296.26 459.363 294.823Z" fill="black" stroke="black" stroke-width="33.3333"/>
<path d="M634 334C634 499.687 499.687 634 334 634C168.315 634 34 499.687 34 334C34 168.315 168.315 34 334 34C499.687 34 634 168.315 634 334Z" stroke="white" stroke-width="66.6667"/>
<path d="M54.0039 434H405.671" stroke="white" stroke-width="66.6667" stroke-linecap="round" stroke-linejoin="round"/>
<path d="M152.375 98.6074L261.046 433.063" stroke="white" stroke-width="66.6667" stroke-linecap="round" stroke-linejoin="round"/>
<path d="M501.74 88.5166L217.236 295.22" stroke="white" stroke-width="66.6667" stroke-linecap="round" stroke-linejoin="round"/>
<path d="M619.304 417.68L334.801 210.975" stroke="white" stroke-width="66.6667" stroke-linecap="round" stroke-linejoin="round"/>
<path d="M342.576 631.197L451.249 296.74" stroke="white" stroke-width="66.6667" stroke-linecap="round" stroke-linejoin="round"/>
</svg>
