<svg width="20" height="20" viewBox="0 0 20 20" fill="none" xmlns="http://www.w3.org/2000/svg">
<g clip-path="url(#clip0_73_55)">
<path d="M17.8571 0H2.14286C0.95939 0 0 1.34315 0 3V17C0 18.6569 0.95939 20 2.14286 20H17.8571C19.0406 20 20 18.6569 20 17V3C20 1.34315 19.0406 0 17.8571 0Z" fill="#F1361D"/>
<path fill-rule="evenodd" clip-rule="evenodd" d="M8.54268 10.1563L8.55094 11.1387L8.93646 11.9596L8.23478 11.9711L7.64844 12.5109L7.64018 11.5285L7.25466 10.7076L7.95633 10.6961L8.54268 10.1563ZM4.76223 2.66694L5.41719 5.40487L7.47953 5.43087L5.82198 7.14901L6.44161 9.90301L4.76223 8.22694L3.08284 9.90301L3.70248 7.14901L2.04492 5.43087L4.10727 5.40487L4.76223 2.66694ZM8.97787 7.57474L9.60682 8.0104L10.3043 7.90217L9.99309 8.78271L10.0704 9.75914L9.44144 9.32348L8.74399 9.43171L9.05517 8.55118L8.97787 7.57474ZM10.0003 4.17891L9.9841 5.16106L10.3489 6.00027L9.64738 5.97756L9.04794 6.48831L9.06417 5.50615L8.69935 4.66694L9.40088 4.68966L10.0003 4.17891ZM7.7855 1.40625L8.30431 2.06775L8.99605 2.23285L8.52356 2.95919L8.40562 3.92763L7.88681 3.26614L7.19507 3.10103L7.66756 2.37469L7.7855 1.40625Z" fill="#FFDC42"/>
</g>
<defs>
<clipPath id="clip0_73_55">
<rect width="20" height="20" fill="white"/>
</clipPath>
</defs>
</svg>
