<svg width="20" height="20" viewBox="0 0 20 20" fill="none" xmlns="http://www.w3.org/2000/svg">
<g clip-path="url(#clip0_73_22)">
<path d="M17.8571 0H2.14286C0.95939 0 0 1.34315 0 3V17C0 18.6569 0.95939 20 2.14286 20H17.8571C19.0406 20 20 18.6569 20 17V3C20 1.34315 19.0406 0 17.8571 0Z" fill="#128C4B"/>
<path fill-rule="evenodd" clip-rule="evenodd" d="M4.76172 11.9997H12.3808V10.6656C12.3808 10.2978 12.5735 10.1346 12.8124 10.3018L13.3331 10.6663V11.9997H14.7573C15.0227 11.9997 15.2379 12.3056 15.2379 12.6726V13.333C15.2379 14.0694 14.8163 14.6663 14.2865 14.6663H12.8526C12.592 14.6663 12.3808 14.3704 12.3808 13.9997V13.333H6.19355C5.92876 13.333 5.56529 13.1247 5.381 12.8667L4.76172 11.9997ZM4.76172 8.33613C4.76172 8.15031 4.83612 7.89551 4.93363 7.75899L5.06599 7.57369C5.16094 7.44076 5.1635 7.22884 5.06599 7.09233L4.93363 6.90702C4.83869 6.7741 4.76172 6.52365 4.76172 6.32988V5.66946C4.76172 5.48364 4.86364 5.33301 5.00204 5.33301H5.47377C5.6065 5.33301 5.7141 5.4757 5.7141 5.66946V6.32988C5.7141 6.5157 5.7615 6.53362 5.81978 6.37043L6.08461 5.62892C6.14298 5.46549 6.30239 5.33301 6.42619 5.33301H7.38296C7.51325 5.33301 7.61886 5.48763 7.61886 5.66634C7.61886 5.85044 7.51694 5.99967 7.37854 5.99967H6.90681C6.77408 5.99967 6.66648 6.1543 6.66648 6.33301C6.66648 6.5171 6.7684 6.66634 6.90681 6.66634H7.37854C7.51126 6.66634 7.61886 6.80971 7.61886 6.99333V9.00602C7.61886 9.18661 7.51694 9.33301 7.37854 9.33301H6.90681C6.77408 9.33301 6.66648 9.19032 6.66648 8.99655V8.33613C6.66648 8.15031 6.77693 7.99967 6.90458 7.99967C7.03607 7.99967 7.14267 7.84505 7.14267 7.66634C7.14267 7.48225 7.04075 7.33301 6.90235 7.33301H6.43062C6.29789 7.33301 6.19029 7.48994 6.19029 7.66327V9.00275C6.19029 9.18515 6.07985 9.33301 5.95219 9.33301C5.8207 9.33301 5.7141 9.19032 5.7141 8.99655V8.33613C5.7141 8.15031 5.60366 7.99967 5.476 7.99967C5.34451 7.99967 5.23791 8.14236 5.23791 8.33613V8.99655C5.23791 9.18237 5.12746 9.33301 4.99981 9.33301C4.86832 9.33301 4.76172 9.19032 4.76172 8.99655V8.33613ZM12.3808 8.33613C12.3808 8.15031 12.4552 7.89551 12.5527 7.75899L12.685 7.57369C12.78 7.44076 12.7826 7.22884 12.685 7.09233L12.5527 6.90702C12.4577 6.7741 12.3808 6.52365 12.3808 6.32988V5.66946C12.3808 5.48364 12.4827 5.33301 12.6211 5.33301H13.0928C13.2255 5.33301 13.3331 5.4757 13.3331 5.66946V6.32988C13.3331 6.5157 13.3805 6.53362 13.4388 6.37043L13.7037 5.62892C13.762 5.46549 13.9214 5.33301 14.0452 5.33301H15.002C15.1323 5.33301 15.2379 5.48763 15.2379 5.66634C15.2379 5.85044 15.136 5.99967 14.9976 5.99967H14.5259C14.3931 5.99967 14.2855 6.1543 14.2855 6.33301C14.2855 6.5171 14.3875 6.66634 14.5259 6.66634H14.9976C15.1303 6.66634 15.2379 6.80971 15.2379 6.99333V9.00602C15.2379 9.18661 15.136 9.33301 14.9976 9.33301H14.5259C14.3931 9.33301 14.2855 9.19032 14.2855 8.99655V8.33613C14.2855 8.15031 14.396 7.99967 14.5236 7.99967C14.6551 7.99967 14.7617 7.84505 14.7617 7.66634C14.7617 7.48225 14.6598 7.33301 14.5214 7.33301H14.0497C13.9169 7.33301 13.8093 7.48994 13.8093 7.66327V9.00275C13.8093 9.18515 13.6989 9.33301 13.5712 9.33301C13.4397 9.33301 13.3331 9.19032 13.3331 8.99655V8.33613C13.3331 8.15031 13.2227 7.99967 13.0951 7.99967C12.9636 7.99967 12.857 8.14236 12.857 8.33613V8.99655C12.857 9.18237 12.7465 9.33301 12.6189 9.33301C12.4874 9.33301 12.3808 9.19032 12.3808 8.99655V8.33613ZM11.4284 6.32988C11.4284 6.5157 11.354 6.77051 11.2565 6.90702L11.1241 7.09233C11.0292 7.22525 11.0266 7.43717 11.1241 7.57369L11.2565 7.75899C11.3514 7.89192 11.4284 8.14236 11.4284 8.33613V8.99655C11.4284 9.18237 11.3265 9.33301 11.1881 9.33301H10.7163C10.5836 9.33301 10.476 9.19032 10.476 8.99655V8.33613C10.476 8.15031 10.4321 8.12272 10.3656 8.30892L10.1103 9.02376C10.0493 9.19455 9.88772 9.33301 9.76391 9.33301H8.80714C8.67686 9.33301 8.57124 9.17839 8.57124 8.99967C8.57124 8.81558 8.67316 8.66634 8.81157 8.66634H9.2833C9.41603 8.66634 9.52362 8.51172 9.52362 8.33301C9.52362 8.14891 9.4217 7.99967 9.2833 7.99967H8.81157C8.67884 7.99967 8.57124 7.8563 8.57124 7.67269V5.65999C8.57124 5.4794 8.67316 5.33301 8.81157 5.33301H9.2833C9.41603 5.33301 9.52362 5.4757 9.52362 5.66946V6.32988C9.52362 6.5157 9.41318 6.66634 9.28553 6.66634C9.15403 6.66634 9.04743 6.82096 9.04743 6.99967C9.04743 7.18377 9.14935 7.33301 9.28776 7.33301H9.75949C9.89222 7.33301 9.99981 7.17607 9.99981 7.00275V5.66327C9.99981 5.48087 10.1103 5.33301 10.2379 5.33301C10.3694 5.33301 10.476 5.4757 10.476 5.66946V6.32988C10.476 6.5157 10.5864 6.66634 10.7141 6.66634C10.8456 6.66634 10.9522 6.52365 10.9522 6.32988V5.66946C10.9522 5.48364 11.0626 5.33301 11.1903 5.33301C11.3218 5.33301 11.4284 5.4757 11.4284 5.66946V6.32988Z" fill="white"/>
</g>
<defs>
<clipPath id="clip0_73_22">
<rect width="20" height="20" fill="white"/>
</clipPath>
</defs>
</svg>
