<svg fill="none" height="26" viewBox="0 0 24 26" width="24" xmlns="http://www.w3.org/2000/svg"><path clip-rule="evenodd" d="m9.3335 2c-.92048 0-1.66667.74619-1.66667 1.66667v13.33333c0 .9205.74619 1.6667 1.66667 1.6667h10.6667c.9204 0 1.6666-.7462 1.6666-1.6667v-8.78105c0-.0884-.0351-.17319-.0976-.2357l-5.8856-5.88562c-.0625-.06251-.1473-.09763-.2357-.09763zm-3.66667 1.66667c0-2.02505 1.64162-3.66667 3.66667-3.66667h6.1144c.6188 0 1.2123.245834 1.6499.683417l5.8856 5.885623c.4376.43758.6834 1.03107.6834 1.64991v8.78105c0 2.025-1.6416 3.6667-3.6666 3.6667h-1.6667v2.3333c0 1.6569-1.3431 3-3 3h-11.33334c-2.02504 0-3.666664-1.6416-3.666664-3.6667v-13.99997c0-1.65685 1.343144-3 3.000004-3h2.33333zm0 3.66666h-2.33333c-.55229 0-1 .44772-1 1v13.99997c0 .9205.74619 1.6667 1.66666 1.6667h11.33334c.5523 0 1-.4477 1-1v-2.3333h-7c-2.02505 0-3.66667-1.6417-3.66667-3.6667z" fill="#2a2238" fill-rule="evenodd"/></svg>