<svg width="24" height="26" viewBox="0 0 24 26" fill="none" xmlns="http://www.w3.org/2000/svg">
<path d="M21.9233 7.62972L21.9232 7.6297L16.0377 1.7441C16.0377 1.7441 16.0377 1.74409 16.0376 1.74408C15.8813 1.58777 15.6694 1.5 15.4484 1.5H9.33399C8.13737 1.5 7.16732 2.47005 7.16732 3.66667V17C7.16732 18.1966 8.13736 19.1667 9.33399 19.1667H20.0007C21.1973 19.1667 22.1673 18.1966 22.1673 17V8.21895C22.1673 7.99803 22.0796 7.78605 21.9233 7.62972ZM22.6303 6.92259L22.9839 6.56904L22.6303 6.9226C22.9742 7.2664 23.1673 7.7327 23.1673 8.21895V17C23.1673 18.7489 21.7495 20.1667 20.0007 20.1667H18.334H17.834V20.6667V23C17.834 24.3808 16.7147 25.5 15.334 25.5H4.00065C2.25175 25.5 0.833984 24.0823 0.833984 22.3333V8.33333C0.833984 6.95262 1.95327 5.83333 3.33399 5.83333H5.66732H6.16732V5.33333V3.66667C6.16732 1.91776 7.58508 0.5 9.33399 0.5H15.4484C15.9346 0.5 16.4009 0.693152 16.7447 1.03698L22.6303 6.92259ZM6.16732 7.33333V6.83333H5.66732H3.33399C2.50555 6.83333 1.83399 7.50491 1.83399 8.33333V22.3333C1.83399 23.5299 2.80403 24.5 4.00065 24.5H15.334C16.1624 24.5 16.834 23.8284 16.834 23V20.6667V20.1667H16.334H9.33399C7.58509 20.1667 6.16732 18.7489 6.16732 17V7.33333Z" fill="#2A2238" stroke="white"/>
</svg>
