<svg width="34" height="26" viewBox="0 0 34 26" fill="none" xmlns="http://www.w3.org/2000/svg">
<g style="mix-blend-mode:multiply">
<path d="M13.7019 26.0004C10.9405 26.0004 8.6546 23.7429 9.16567 21.0292C9.48609 19.3278 9.97096 17.6598 10.6153 16.0506C11.8786 12.8962 13.7301 10.0299 16.0643 7.61566C18.3985 5.20134 21.1696 3.28619 24.2193 1.97957C25.725 1.3345 27.284 0.843979 28.8739 0.512637C31.5773 -0.0507408 33.8388 2.23902 33.8388 5.00044V21.0004C33.8388 23.7618 31.6002 26.0004 28.8388 26.0004H13.7019Z" fill="#3DD9EB"/>
<path d="M20.1369 26.0004C22.8983 26.0004 25.1842 23.7429 24.6732 21.0292C24.3528 19.3278 23.8679 17.6598 23.2235 16.0506C21.9602 12.8962 20.1087 10.0299 17.7745 7.61566C15.4403 5.20134 12.6692 3.28619 9.61949 1.97957C8.11383 1.3345 6.55481 0.843979 4.96489 0.512637C2.26154 -0.0507408 0 2.23902 0 5.00044V21.0004C0 23.7618 2.23858 26.0004 5 26.0004H20.1369Z" fill="#615DFF"/>
</g>
</svg>
