<svg width="61" height="58" viewBox="0 0 61 58" fill="none" xmlns="http://www.w3.org/2000/svg">
<path d="M7.23633 13.809C7.23906 21.4373 14.697 27.6168 23.9022 27.618C33.1088 27.6157 40.5668 21.4362 40.5681 13.809C40.5681 6.18176 33.1088 0.00226562 23.9036 0C14.697 0.00226562 7.23906 6.18176 7.23633 13.809C7.23633 15.3349 8.72929 16.5708 10.5695 16.5708C12.4111 16.5708 13.9027 15.3338 13.9027 13.809C13.9123 9.23355 18.3816 5.53152 23.9022 5.52359C29.4243 5.53152 33.8922 9.23469 33.9018 13.809C33.8922 18.3844 29.4229 22.0864 23.9022 22.0944C18.3802 22.0864 13.9123 18.3833 13.9027 13.809C13.9027 12.2831 12.4097 11.0472 10.5695 11.0472C8.72929 11.0472 7.23633 12.2842 7.23633 13.809Z" fill="black"/>
<path d="M37.2375 49.715H57.2379C59.0795 49.715 60.5711 48.478 60.5711 46.9532C60.5711 45.4284 59.0782 44.1914 57.2379 44.1914H37.2375C35.3959 44.1914 33.9043 45.4284 33.9043 46.9532C33.9043 48.478 35.3973 49.715 37.2375 49.715Z" fill="black"/>
<path d="M43.9023 38.6661V55.238C43.9023 56.7639 45.3953 57.9998 47.2355 57.9998C49.0771 57.9998 50.5687 56.7628 50.5687 55.238V38.6661C50.5687 37.1402 49.0757 35.9043 47.2355 35.9043C45.3953 35.9043 43.9023 37.1413 43.9023 38.6661Z" fill="black"/>
<path d="M7.23668 52.4761V46.9525C7.24625 42.3771 11.7156 38.6751 17.2362 38.6671H30.5689C32.4105 38.6671 33.9021 37.4301 33.9021 35.9054C33.9021 34.3795 32.4092 33.1436 30.5689 33.1436H17.2362C8.02964 33.1458 0.57168 39.3253 0.570312 46.9525V52.4761C0.570312 54.002 2.06327 55.2379 3.90349 55.2379C5.74372 55.2379 7.23668 54.0009 7.23668 52.4761Z" fill="black"/>
</svg>
