<svg width="60" height="58" viewBox="0 0 60 58" fill="none" xmlns="http://www.w3.org/2000/svg">
<path d="M17 0H9C6.61305 0 4.32387 0.948212 2.63604 2.63604C0.948212 4.32387 0 6.61305 0 9V49C0 51.3869 0.948212 53.6761 2.63604 55.364C4.32387 57.0518 6.61305 58 9 58H17C19.3869 58 21.6761 57.0518 23.364 55.364C25.0518 53.6761 26 51.3869 26 49V9C26 6.61305 25.0518 4.32387 23.364 2.63604C21.6761 0.948212 19.3869 0 17 0ZM20 49C20 49.7956 19.6839 50.5587 19.1213 51.1213C18.5587 51.6839 17.7956 52 17 52H9C8.20435 52 7.44129 51.6839 6.87868 51.1213C6.31607 50.5587 6 49.7956 6 49V9C6 8.20435 6.31607 7.44129 6.87868 6.87868C7.44129 6.31607 8.20435 6 9 6H17C17.7956 6 18.5587 6.31607 19.1213 6.87868C19.6839 7.44129 20 8.20435 20 9V49Z" fill="black"/>
<path d="M45 24H51C52.1819 24 53.3522 23.7672 54.4442 23.3149C55.5361 22.8626 56.5282 22.1997 57.364 21.364C58.1997 20.5282 58.8626 19.5361 59.3149 18.4441C59.7672 17.3522 60 16.1819 60 15V9C60 7.8181 59.7672 6.64778 59.3149 5.55585C58.8626 4.46392 58.1997 3.47177 57.364 2.63604C56.5282 1.80031 55.5361 1.13738 54.4442 0.685083C53.3522 0.232791 52.1819 0 51 0H45C42.6131 0 40.3239 0.948212 38.636 2.63604C36.9482 4.32387 36 6.61305 36 9V15C36 17.3869 36.9482 19.6761 38.636 21.364C40.3239 23.0518 42.6131 24 45 24ZM42 9C42 8.20435 42.3161 7.44129 42.8787 6.87868C43.4413 6.31607 44.2044 6 45 6H51C51.7956 6 52.5587 6.31607 53.1213 6.87868C53.6839 7.44129 54 8.20435 54 9V15C54 15.7956 53.6839 16.5587 53.1213 17.1213C52.5587 17.6839 51.7956 18 51 18H45C44.2044 18 43.4413 17.6839 42.8787 17.1213C42.3161 16.5587 42 15.7956 42 15V9Z" fill="black"/>
<path d="M36 49C36 51.3869 36.9482 53.6761 38.636 55.364C40.3239 57.0518 42.6131 58 45 58H51C52.1819 58 53.3522 57.7672 54.4442 57.3149C55.5361 56.8626 56.5282 56.1997 57.364 55.364C58.1997 54.5282 58.8626 53.5361 59.3149 52.4442C59.7672 51.3522 60 50.1819 60 49V43C60 41.8181 59.7672 40.6478 59.3149 39.5559C58.8626 38.4639 58.1997 37.4718 57.364 36.636C56.5282 35.8003 55.5361 35.1374 54.4442 34.6851C53.3522 34.2328 52.1819 34 51 34H45C42.6131 34 40.3239 34.9482 38.636 36.636C36.9482 38.3239 36 40.6131 36 43V49ZM42 43C42 42.2044 42.3161 41.4413 42.8787 40.8787C43.4413 40.3161 44.2044 40 45 40H51C51.7956 40 52.5587 40.3161 53.1213 40.8787C53.6839 41.4413 54 42.2044 54 43V49C54 49.7956 53.6839 50.5587 53.1213 51.1213C52.5587 51.6839 51.7956 52 51 52H45C44.2044 52 43.4413 51.6839 42.8787 51.1213C42.3161 50.5587 42 49.7956 42 49V43Z" fill="black"/>
</svg>
