<?xml version="1.0" encoding="utf-8"?>
<!-- Generator: Adobe Illustrator 27.7.0, SVG Export Plug-In . SVG Version: 6.00 Build 0)  -->
<svg version="1.1" id="Layer_1" xmlns="http://www.w3.org/2000/svg" xmlns:xlink="http://www.w3.org/1999/xlink" x="0px" y="0px"
	 viewBox="0 0 512 512" style="enable-background:new 0 0 512 512;" xml:space="preserve">
<g>
	<path d="M85.33,121.9c0.02,67.34,54.57,121.89,121.9,121.9c67.34-0.02,121.89-54.57,121.9-121.9C329.13,54.57,274.57,0.02,207.24,0
		C139.9,0.02,85.35,54.57,85.33,121.9c0,13.47,10.92,24.38,24.38,24.38c13.47,0,24.38-10.92,24.38-24.38
		c0.07-40.39,32.76-73.07,73.14-73.14c40.39,0.07,73.07,32.76,73.14,73.14c-0.07,40.39-32.76,73.07-73.14,73.14
		c-40.39-0.07-73.07-32.76-73.14-73.14c0-13.47-10.92-24.38-24.38-24.38C96.25,97.52,85.33,108.44,85.33,121.9L85.33,121.9z"/>
	<path d="M304.76,438.86h146.29c13.47,0,24.38-10.92,24.38-24.38s-10.92-24.38-24.38-24.38H304.76c-13.47,0-24.38,10.92-24.38,24.38
		S291.3,438.86,304.76,438.86"/>
	<path d="M353.52,341.33v146.29c0,13.47,10.92,24.38,24.38,24.38c13.47,0,24.38-10.92,24.38-24.38V341.33
		c0-13.47-10.92-24.38-24.38-24.38C364.44,316.95,353.52,327.87,353.52,341.33"/>
	<path d="M85.33,463.24v-48.76c0.07-40.39,32.76-73.07,73.14-73.14l97.52,0c13.47,0,24.38-10.92,24.38-24.38
		c0-13.47-10.92-24.38-24.38-24.38h-97.52c-67.34,0.02-121.89,54.57-121.9,121.9v48.76c0,13.47,10.92,24.38,24.38,24.38
		S85.33,476.7,85.33,463.24z"/>
</g>
</svg>
